<?xml version="1.0" standalone="no"?>
<!DOCTYPE svg PUBLIC "-//W3C//DTD SVG 20010904//EN"
 "http://www.w3.org/TR/2001/REC-SVG-20010904/DTD/svg10.dtd">
<svg version="1.0" xmlns="http://www.w3.org/2000/svg"
 width="140.000000pt" height="97.000000pt" viewBox="0 0 140.000000 97.000000"
 preserveAspectRatio="xMidYMid meet">

<g transform="translate(0.000000,97.000000) scale(0.100000,-0.100000)"
fill="#000000" stroke="none">
<path d="M382 778 c-11 -44 -7 -63 8 -38 7 11 11 11 24 1 19 -16 20 -9 5 42
-13 48 -24 47 -37 -5z m24 -15 c-10 -10 -19 5 -10 18 6 11 8 11 12 0 2 -7 1
-15 -2 -18z"/>
<path d="M443 803 c-4 -11 1 -22 15 -31 28 -18 29 -36 2 -29 -11 3 -18 1 -14
-4 8 -13 44 -11 44 3 0 9 3 9 12 0 7 -7 22 -12 35 -12 30 0 31 35 3 50 -24 13
-17 32 8 23 13 -5 15 -3 5 7 -14 16 -43 6 -43 -15 0 -8 9 -20 20 -27 22 -14
26 -28 8 -28 -18 0 -88 51 -83 61 3 4 13 5 22 2 11 -4 14 -3 9 5 -11 17 -36
15 -43 -5z"/>
<path d="M582 808 c-29 -29 3 -103 35 -77 19 16 14 83 -7 87 -9 1 -21 -3 -28
-10z m36 -39 c-5 -35 -28 -36 -28 -1 0 16 3 32 7 36 11 11 25 -10 21 -35z"/>
<path d="M650 800 c-12 -22 -5 -60 13 -72 16 -10 37 2 36 21 0 10 -2 11 -6 4
-9 -25 -33 -14 -33 15 0 36 9 45 28 29 13 -10 14 -9 10 3 -7 23 -35 23 -48 0z"/>
<path d="M717 813 c-9 -19 -8 -83 2 -83 6 0 11 20 11 45 0 42 -4 55 -13 38z"/>
<path d="M751 783 c-15 -51 -14 -58 5 -42 13 10 17 10 24 -1 15 -25 19 -6 8
38 -13 52 -24 53 -37 5z m29 -14 c0 -5 -4 -9 -10 -9 -5 0 -10 7 -10 16 0 8 5
12 10 9 6 -3 10 -10 10 -16z"/>
<path d="M808 775 c5 -56 22 -60 22 -5 0 22 5 40 10 40 6 0 10 -18 10 -40 0
-22 5 -40 10 -40 6 0 10 20 10 45 0 44 -1 45 -33 45 -32 0 -32 0 -29 -45z"/>
<path d="M892 808 c-29 -29 3 -103 35 -77 19 16 14 83 -7 87 -9 1 -21 -3 -28
-10z m36 -39 c-5 -35 -28 -36 -28 -1 0 16 3 32 7 36 11 11 25 -10 21 -35z"/>
<path d="M962 775 c0 -43 1 -46 8 -20 4 17 8 25 9 19 0 -5 8 -19 16 -30 13
-17 14 -15 13 31 0 43 -1 46 -8 20 -4 -16 -8 -25 -9 -19 0 5 -8 19 -16 30 -13
17 -14 15 -13 -31z"/>
<path d="M642 628 c-21 -21 -34 -23 -147 -26 l-125 -4 0 -64 0 -64 93 0 c82 0
96 -3 129 -25 30 -20 49 -25 102 -25 63 0 146 24 146 42 0 5 41 8 90 8 l90 0
0 65 0 65 -100 0 c-84 0 -108 4 -156 25 -70 31 -93 31 -122 3z"/>
<path d="M784 365 c-4 -9 -2 -21 5 -28 14 -14 15 -30 1 -22 -5 3 -10 1 -10 -4
0 -6 7 -11 15 -11 8 0 15 5 15 11 0 8 5 7 15 -1 20 -17 38 -1 33 31 -4 30 -28
37 -35 10 -4 -17 -8 -19 -20 -10 -10 9 -11 14 -2 19 8 6 8 9 0 14 -6 4 -14 0
-17 -9z m66 -30 c0 -14 -4 -25 -10 -25 -5 0 -10 11 -10 25 0 14 5 25 10 25 6
0 10 -11 10 -25z"/>
<path d="M371 332 c0 -29 2 -33 8 -17 5 11 6 27 4 35 -2 8 4 0 13 -17 23 -44
44 -43 44 1 0 32 -2 34 -35 34 -34 0 -35 -1 -34 -36z m59 1 c0 -20 -3 -24 -11
-16 -7 7 -9 19 -6 27 10 24 17 19 17 -11z"/>
<path d="M452 338 c-2 -32 1 -38 18 -38 16 0 20 7 20 30 0 41 20 38 21 -2 l2
-33 7 35 7 35 5 -35 5 -35 1 38 c2 35 0 37 -28 37 -27 0 -30 -3 -30 -30 0 -40
-18 -38 -23 3 -4 31 -4 31 -5 -5z"/>
<path d="M554 356 c-10 -27 1 -51 24 -52 12 -1 22 4 22 9 0 7 4 7 12 -1 7 -7
21 -12 33 -11 11 0 14 3 8 6 -7 2 -14 19 -14 36 l-1 32 -8 -30 -8 -30 -1 28
c0 15 -6 27 -12 27 -6 0 -9 -9 -6 -20 3 -11 2 -18 -3 -15 -4 3 -10 -2 -14 -10
-9 -24 -26 -17 -26 11 0 20 4 25 16 20 8 -3 12 -2 9 4 -9 15 -25 12 -31 -4z"/>
<path d="M681 333 c1 -21 3 -30 6 -20 2 9 9 17 14 17 5 0 9 9 9 20 0 11 -7 20
-15 20 -11 0 -15 -10 -14 -37z"/>
<path d="M721 333 c0 -30 2 -33 8 -18 l8 20 5 -20 c4 -12 6 -5 7 18 1 27 -3
37 -14 37 -11 0 -15 -11 -14 -37z"/>
<path d="M763 335 c0 -22 2 -30 4 -17 2 12 2 30 0 40 -3 9 -5 -1 -4 -23z"/>
<path d="M871 364 c0 -7 6 -25 14 -40 l15 -29 -1 40 c0 30 -2 35 -8 20 l-8
-20 -5 20 c-3 11 -6 15 -7 9z"/>
<path d="M910 335 c0 -31 3 -35 25 -35 17 0 25 6 26 18 0 14 2 14 9 -3 7 -16
9 -13 9 18 1 26 -3 37 -14 37 -10 0 -15 -10 -15 -30 0 -20 -5 -30 -15 -30 -8
0 -15 5 -15 10 0 6 6 10 13 10 8 0 7 4 -3 10 -13 9 -13 11 0 20 13 8 12 10 -2
10 -14 0 -18 -8 -18 -35z"/>
<path d="M990 356 c0 -8 5 -18 10 -21 6 -3 10 -11 10 -16 0 -6 -4 -7 -10 -4
-5 3 -10 1 -10 -4 0 -6 7 -11 15 -11 17 0 20 35 4 46 -8 4 -7 9 2 15 11 7 10
9 -3 9 -10 0 -18 -6 -18 -14z"/>
<path d="M382 228 c-17 -17 -15 -83 3 -98 34 -29 66 29 46 83 -11 29 -30 34
-49 15z m33 -48 c0 -18 -5 -35 -12 -37 -15 -5 -26 31 -18 58 10 31 30 17 30
-21z"/>
<path d="M450 180 c0 -33 4 -60 10 -60 6 0 10 11 10 25 0 16 6 25 15 25 8 0
15 5 15 10 0 6 -7 10 -15 10 -8 0 -15 7 -15 15 0 8 7 15 15 15 8 0 15 5 15 10
0 6 -11 10 -25 10 -24 0 -25 -3 -25 -60z"/>
<path d="M540 180 c0 -52 2 -60 19 -60 27 0 39 20 37 60 -2 44 -12 60 -37 60
-17 0 -19 -7 -19 -60z m40 25 c0 -8 -7 -15 -15 -15 -8 0 -15 7 -15 15 0 8 7
15 15 15 8 0 15 -7 15 -15z m0 -51 c0 -8 -7 -14 -15 -14 -15 0 -21 21 -9 33
10 9 24 -2 24 -19z"/>
<path d="M610 180 c0 -57 1 -60 25 -60 14 0 25 5 25 10 0 6 -9 10 -20 10 -11
0 -20 7 -20 15 0 8 7 15 15 15 8 0 15 5 15 10 0 6 -7 10 -15 10 -8 0 -15 7
-15 15 0 8 9 15 20 15 11 0 20 5 20 10 0 6 -11 10 -25 10 -24 0 -25 -3 -25
-60z"/>
<path d="M678 234 c-5 -4 -8 -31 -8 -61 0 -50 1 -53 25 -53 14 0 25 5 25 10 0
6 -7 10 -14 10 -11 0 -16 15 -18 51 -2 28 -6 47 -10 43z"/>
<path d="M757 233 c-3 -5 -8 -24 -12 -43 -3 -19 -9 -43 -11 -52 -3 -10 -1 -18
5 -18 6 0 11 7 11 15 0 8 7 15 15 15 8 0 15 -7 15 -15 0 -8 5 -15 10 -15 11 0
5 55 -11 98 -9 23 -15 27 -22 15z m10 -55 c-3 -8 -6 -5 -6 6 -1 11 2 17 5 13
3 -3 4 -12 1 -19z"/>
<path d="M810 178 c0 -59 12 -71 22 -23 4 18 6 17 16 -7 6 -16 13 -28 15 -28
2 0 4 21 4 48 0 52 -10 72 -38 72 -17 0 -19 -8 -19 -62z m40 28 c0 -8 -4 -18
-10 -21 -5 -3 -10 3 -10 14 0 12 5 21 10 21 6 0 10 -6 10 -14z"/>
<path d="M888 234 c-11 -11 -10 -72 2 -95 15 -27 39 -24 50 7 13 33 13 81 0
89 -6 4 -10 -13 -10 -44 0 -38 -4 -51 -14 -51 -11 0 -16 15 -18 51 -2 28 -6
47 -10 43z"/>
<path d="M972 228 c-19 -19 -14 -36 14 -54 17 -11 22 -20 15 -27 -7 -7 -16 -6
-27 4 -14 12 -16 11 -13 -6 3 -14 12 -20 29 -20 34 0 41 41 11 62 -27 18 -27
36 -1 28 15 -5 18 -3 14 9 -7 19 -25 21 -42 4z"/>
</g>
</svg>
